<svg width="960" height="366" viewBox="0 0 960 366" fill="none" xmlns="http://www.w3.org/2000/svg">
<g clip-path="url(#clip0_2645_27)">
<path d="M0 151H96V176H192V154H288V162H384V165H480V131H576V161H672V134H768V171H864V158H960V195V367H864H768H672H576H480H384H288H192H96H0V151Z" fill="#77844C"/>
<path d="M0 201H96V227H192V218H288V236H384V209H480V261H576V206H672V208H768V228H864V258H960V221V367H864H768H672H576H480H384H288H192H96H0V201Z" fill="#9F955E"/>
<path d="M0 275H96V291H192V278H288V305H384V324H480V304H576V323H672V331H768V298H864V269H960V316V367H864H768H672H576H480H384H288H192H96H0V275Z" fill="#C6A676"/>
</g>
<defs>
<clipPath id="clip0_2645_27">
<rect width="960" height="366" fill="white"/>
</clipPath>
</defs>
</svg>
