<svg width="900" height="207" viewBox="0 0 900 207" fill="none" xmlns="http://www.w3.org/2000/svg">
<g clip-path="url(#clip0_2637_76)">
<path d="M900 -393H0V207H900V-393Z" fill="#001220"/>
<g clip-path="url(#clip1_2637_76)">
<path d="M900 -539H0V61H900V-539Z" fill="#585148"/>
<g filter="url(#filter0_f_2637_76)">
<path d="M394 112C591.166 112 751 -47.8344 751 -245C751 -442.166 591.166 -602 394 -602C196.834 -602 37 -442.166 37 -245C37 -47.8344 196.834 112 394 112Z" fill="#5B7843"/>
<path d="M63 178C260.166 178 420 18.1656 420 -179C420 -376.166 260.166 -536 63 -536C-134.166 -536 -294 -376.166 -294 -179C-294 18.1656 -134.166 178 63 178Z" fill="#585148"/>
<path d="M776 402C973.166 402 1133 242.166 1133 45C1133 -152.166 973.166 -312 776 -312C578.834 -312 419 -152.166 419 45C419 242.166 578.834 402 776 402Z" fill="#5B7843"/>
<path d="M364 304C561.166 304 721 144.166 721 -53C721 -250.166 561.166 -410 364 -410C166.834 -410 7 -250.166 7 -53C7 144.166 166.834 304 364 304Z" fill="#5B7843"/>
<path d="M673 36C870.166 36 1030 -123.834 1030 -321C1030 -518.166 870.166 -678 673 -678C475.834 -678 316 -518.166 316 -321C316 -123.834 475.834 36 673 36Z" fill="#5B7843"/>
</g>
</g>
<path d="M0 59.0004L18.8 59.3004C37.7 59.7004 75.3 60.3004 112.8 53.0004C150.3 45.7004 187.7 30.3004 225.2 30.2004C262.7 30.0004 300.3 45.0004 337.8 46.3004C375.3 47.7004 412.7 35.3004 450.2 29.2004C487.7 23.0004 525.3 23.0004 562.8 23.2004C600.3 23.3004 637.7 23.7004 675.2 21.5004C712.7 19.3004 750.3 14.7004 787.8 20.5004C825.3 26.3004 862.7 42.7004 881.3 50.8004L900 59.0004V208H881.3C862.7 208 825.3 208 787.8 208C750.3 208 712.7 208 675.2 208C637.7 208 600.3 208 562.8 208C525.3 208 487.7 208 450.2 208C412.7 208 375.3 208 337.8 208C300.3 208 262.7 208 225.2 208C187.7 208 150.3 208 112.8 208C75.3 208 37.7 208 18.8 208H0V59.0004Z" fill="#77844C"/>
<path d="M0 80L18.8 86.7C37.7 93.3 75.3 106.7 112.8 103.5C150.3 100.3 187.7 80.7 225.2 75.7C262.7 70.7 300.3 80.3 337.8 89.5C375.3 98.7 412.7 107.3 450.2 111.8C487.7 116.3 525.3 116.7 562.8 113C600.3 109.3 637.7 101.7 675.2 94.2C712.7 86.7 750.3 79.3 787.8 73.8C825.3 68.3 862.7 64.7 881.3 62.8L900 61V208H881.3C862.7 208 825.3 208 787.8 208C750.3 208 712.7 208 675.2 208C637.7 208 600.3 208 562.8 208C525.3 208 487.7 208 450.2 208C412.7 208 375.3 208 337.8 208C300.3 208 262.7 208 225.2 208C187.7 208 150.3 208 112.8 208C75.3 208 37.7 208 18.8 208H0V80Z" fill="#9F955E"/>
<path d="M0 151L18.8 154C37.7 157 75.3 163 112.8 159.7C150.3 156.3 187.7 143.7 225.2 144.5C262.7 145.3 300.3 159.7 337.8 165.5C375.3 171.3 412.7 168.7 450.2 160.7C487.7 152.7 525.3 139.3 562.8 134.5C600.3 129.7 637.7 133.3 675.2 137.7C712.7 142 750.3 147 787.8 145.8C825.3 144.7 862.7 137.3 881.3 133.7L900 130V208H881.3C862.7 208 825.3 208 787.8 208C750.3 208 712.7 208 675.2 208C637.7 208 600.3 208 562.8 208C525.3 208 487.7 208 450.2 208C412.7 208 375.3 208 337.8 208C300.3 208 262.7 208 225.2 208C187.7 208 150.3 208 112.8 208C75.3 208 37.7 208 18.8 208H0V151Z" fill="#C6A676"/>
</g>
<defs>
<filter id="filter0_f_2637_76" x="-616" y="-1082" width="2071" height="1806" filterUnits="userSpaceOnUse" color-interpolation-filters="sRGB">
<feFlood flood-opacity="0" result="BackgroundImageFix"/>
<feBlend mode="normal" in="SourceGraphic" in2="BackgroundImageFix" result="shape"/>
<feGaussianBlur stdDeviation="161" result="effect1_foregroundBlur_2637_76"/>
</filter>
<clipPath id="clip0_2637_76">
<rect width="900" height="207" fill="white"/>
</clipPath>
<clipPath id="clip1_2637_76">
<rect width="900" height="600" fill="white" transform="translate(0 -539)"/>
</clipPath>
</defs>
</svg>
