<svg width="900" height="280" viewBox="0 0 900 280" fill="none" xmlns="http://www.w3.org/2000/svg">
<g clip-path="url(#clip0_2637_76)">
<path d="M900 -320H0V280H900V-320Z" fill="#001220"/>
<g clip-path="url(#clip1_2637_76)">
<path d="M900 -466H0V134H900V-466Z" fill="#585148"/>
<g filter="url(#filter0_f_2637_76)">
<path d="M394 185C591.166 185 751 25.1656 751 -172C751 -369.166 591.166 -529 394 -529C196.834 -529 37 -369.166 37 -172C37 25.1656 196.834 185 394 185Z" fill="#5B7843"/>
<path d="M63 251C260.166 251 420 91.1656 420 -106C420 -303.166 260.166 -463 63 -463C-134.166 -463 -294 -303.166 -294 -106C-294 91.1656 -134.166 251 63 251Z" fill="#585148"/>
<path d="M776 475C973.166 475 1133 315.166 1133 118C1133 -79.1656 973.166 -239 776 -239C578.834 -239 419 -79.1656 419 118C419 315.166 578.834 475 776 475Z" fill="#5B7843"/>
<path d="M364 377C561.166 377 721 217.166 721 20C721 -177.166 561.166 -337 364 -337C166.834 -337 7 -177.166 7 20C7 217.166 166.834 377 364 377Z" fill="#5B7843"/>
<path d="M270 27C467.166 27 627 -132.834 627 -330C627 -527.166 467.166 -687 270 -687C72.8344 -687 -87 -527.166 -87 -330C-87 -132.834 72.8344 27 270 27Z" fill="#585148"/>
<path d="M673 109C870.166 109 1030 -50.8344 1030 -248C1030 -445.166 870.166 -605 673 -605C475.834 -605 316 -445.166 316 -248C316 -50.8344 475.834 109 673 109Z" fill="#5B7843"/>
</g>
</g>
<path d="M0 132L18.8 132.3C37.7 132.7 75.3 133.3 112.8 126C150.3 118.7 187.7 103.3 225.2 103.2C262.7 103 300.3 118 337.8 119.3C375.3 120.7 412.7 108.3 450.2 102.2C487.7 96.0004 525.3 96.0004 562.8 96.2004C600.3 96.3004 637.7 96.7004 675.2 94.5004C712.7 92.3004 750.3 87.7004 787.8 93.5004C825.3 99.3004 862.7 115.7 881.3 123.8L900 132V281H881.3C862.7 281 825.3 281 787.8 281C750.3 281 712.7 281 675.2 281C637.7 281 600.3 281 562.8 281C525.3 281 487.7 281 450.2 281C412.7 281 375.3 281 337.8 281C300.3 281 262.7 281 225.2 281C187.7 281 150.3 281 112.8 281C75.3 281 37.7 281 18.8 281H0V132Z" fill="#77844C"/>
<path d="M0 153L18.8 159.7C37.7 166.3 75.3 179.7 112.8 176.5C150.3 173.3 187.7 153.7 225.2 148.7C262.7 143.7 300.3 153.3 337.8 162.5C375.3 171.7 412.7 180.3 450.2 184.8C487.7 189.3 525.3 189.7 562.8 186C600.3 182.3 637.7 174.7 675.2 167.2C712.7 159.7 750.3 152.3 787.8 146.8C825.3 141.3 862.7 137.7 881.3 135.8L900 134V281H881.3C862.7 281 825.3 281 787.8 281C750.3 281 712.7 281 675.2 281C637.7 281 600.3 281 562.8 281C525.3 281 487.7 281 450.2 281C412.7 281 375.3 281 337.8 281C300.3 281 262.7 281 225.2 281C187.7 281 150.3 281 112.8 281C75.3 281 37.7 281 18.8 281H0V153Z" fill="#9F955E"/>
<path d="M0 224L18.8 227C37.7 230 75.3 236 112.8 232.7C150.3 229.3 187.7 216.7 225.2 217.5C262.7 218.3 300.3 232.7 337.8 238.5C375.3 244.3 412.7 241.7 450.2 233.7C487.7 225.7 525.3 212.3 562.8 207.5C600.3 202.7 637.7 206.3 675.2 210.7C712.7 215 750.3 220 787.8 218.8C825.3 217.7 862.7 210.3 881.3 206.7L900 203V281H881.3C862.7 281 825.3 281 787.8 281C750.3 281 712.7 281 675.2 281C637.7 281 600.3 281 562.8 281C525.3 281 487.7 281 450.2 281C412.7 281 375.3 281 337.8 281C300.3 281 262.7 281 225.2 281C187.7 281 150.3 281 112.8 281C75.3 281 37.7 281 18.8 281H0V224Z" fill="#C6A676"/>
</g>
<defs>
<filter id="filter0_f_2637_76" x="-616" y="-1009" width="2071" height="1806" filterUnits="userSpaceOnUse" color-interpolation-filters="sRGB">
<feFlood flood-opacity="0" result="BackgroundImageFix"/>
<feBlend mode="normal" in="SourceGraphic" in2="BackgroundImageFix" result="shape"/>
<feGaussianBlur stdDeviation="161" result="effect1_foregroundBlur_2637_76"/>
</filter>
<clipPath id="clip0_2637_76">
<rect width="900" height="280" fill="white"/>
</clipPath>
<clipPath id="clip1_2637_76">
<rect width="900" height="600" fill="white" transform="translate(0 -466)"/>
</clipPath>
</defs>
</svg>
