<svg width="900" height="366" viewBox="0 0 900 366" fill="none" xmlns="http://www.w3.org/2000/svg">
<g clip-path="url(#clip0_2644_14)">
<path d="M0 189.057H90V184.999H180V193.115H270V160.649H360V171.2H450V186.622H540V178.505H630V174.447H720V153.344H810V170.389H900V206.914V366.812H810H720H630H540H450H360H270H180H90H0V189.057Z" fill="#77844C"/>
<path d="M0 223.147H90V215.842H180V233.698H270V258.86H360V223.147H450V260.483H540V258.86H630V234.51H720V223.958H810V219.088H900V267.788V366.812H810H720H630H540H450H360H270H180H90H0V223.147Z" fill="#9F955E"/>
<path d="M0 292.95H90V304.314H180V295.385H270V330.287H360V293.762H450V310.807H540V333.534H630V309.184H720V319.735H810V318.924H900V326.229V366.812H810H720H630H540H450H360H270H180H90H0V292.95Z" fill="#C6A676"/>
</g>
<defs>
<clipPath id="clip0_2644_14">
<rect width="900" height="366" fill="white"/>
</clipPath>
</defs>
</svg>
