<svg width="900" height="287" viewBox="0 0 900 287" fill="none" xmlns="http://www.w3.org/2000/svg">
<g clip-path="url(#clip0_2637_27)">
<path d="M900 -313H0V287H900V-313Z" fill="#001220"/>
<g clip-path="url(#clip1_2637_27)">
<path d="M900 -459H0V141H900V-459Z" fill="#585148"/>
<g filter="url(#filter0_f_2637_27)">
<path d="M394 192C591.166 192 751 32.1656 751 -165C751 -362.166 591.166 -522 394 -522C196.834 -522 37 -362.166 37 -165C37 32.1656 196.834 192 394 192Z" fill="#5B7843"/>
<path d="M63 258C260.166 258 420 98.1656 420 -99C420 -296.166 260.166 -456 63 -456C-134.166 -456 -294 -296.166 -294 -99C-294 98.1656 -134.166 258 63 258Z" fill="#585148"/>
<path d="M776 482C973.166 482 1133 322.166 1133 125C1133 -72.1656 973.166 -232 776 -232C578.834 -232 419 -72.1656 419 125C419 322.166 578.834 482 776 482Z" fill="#5B7843"/>
<path d="M364 384C561.166 384 721 224.166 721 27C721 -170.166 561.166 -330 364 -330C166.834 -330 7 -170.166 7 27C7 224.166 166.834 384 364 384Z" fill="#5B7843"/>
<path d="M270 34C467.166 34 627 -125.834 627 -323C627 -520.166 467.166 -680 270 -680C72.8344 -680 -87 -520.166 -87 -323C-87 -125.834 72.8344 34 270 34Z" fill="#585148"/>
<path d="M673 116C870.166 116 1030 -43.8344 1030 -241C1030 -438.166 870.166 -598 673 -598C475.834 -598 316 -438.166 316 -241C316 -43.8344 475.834 116 673 116Z" fill="#5B7843"/>
</g>
</g>
<path d="M0 139L18.8 139.3C37.7 139.7 75.3 140.3 112.8 133C150.3 125.7 187.7 110.3 225.2 110.2C262.7 110 300.3 125 337.8 126.3C375.3 127.7 412.7 115.3 450.2 109.2C487.7 103 525.3 103 562.8 103.2C600.3 103.3 637.7 103.7 675.2 101.5C712.7 99.3004 750.3 94.7004 787.8 100.5C825.3 106.3 862.7 122.7 881.3 130.8L900 139V288H881.3C862.7 288 825.3 288 787.8 288C750.3 288 712.7 288 675.2 288C637.7 288 600.3 288 562.8 288C525.3 288 487.7 288 450.2 288C412.7 288 375.3 288 337.8 288C300.3 288 262.7 288 225.2 288C187.7 288 150.3 288 112.8 288C75.3 288 37.7 288 18.8 288H0V139Z" fill="#585148"/>
<path d="M0 160L18.8 166.7C37.7 173.3 75.3 186.7 112.8 183.5C150.3 180.3 187.7 160.7 225.2 155.7C262.7 150.7 300.3 160.3 337.8 169.5C375.3 178.7 412.7 187.3 450.2 191.8C487.7 196.3 525.3 196.7 562.8 193C600.3 189.3 637.7 181.7 675.2 174.2C712.7 166.7 750.3 159.3 787.8 153.8C825.3 148.3 862.7 144.7 881.3 142.8L900 141V288H881.3C862.7 288 825.3 288 787.8 288C750.3 288 712.7 288 675.2 288C637.7 288 600.3 288 562.8 288C525.3 288 487.7 288 450.2 288C412.7 288 375.3 288 337.8 288C300.3 288 262.7 288 225.2 288C187.7 288 150.3 288 112.8 288C75.3 288 37.7 288 18.8 288H0V160Z" fill="#8D7A5F"/>
<path d="M0 231L18.8 234C37.7 237 75.3 243 112.8 239.7C150.3 236.3 187.7 223.7 225.2 224.5C262.7 225.3 300.3 239.7 337.8 245.5C375.3 251.3 412.7 248.7 450.2 240.7C487.7 232.7 525.3 219.3 562.8 214.5C600.3 209.7 637.7 213.3 675.2 217.7C712.7 222 750.3 227 787.8 225.8C825.3 224.7 862.7 217.3 881.3 213.7L900 210V288H881.3C862.7 288 825.3 288 787.8 288C750.3 288 712.7 288 675.2 288C637.7 288 600.3 288 562.8 288C525.3 288 487.7 288 450.2 288C412.7 288 375.3 288 337.8 288C300.3 288 262.7 288 225.2 288C187.7 288 150.3 288 112.8 288C75.3 288 37.7 288 18.8 288H0V231Z" fill="#C6A676"/>
</g>
<defs>
<filter id="filter0_f_2637_27" x="-616" y="-1002" width="2071" height="1806" filterUnits="userSpaceOnUse" color-interpolation-filters="sRGB">
<feFlood flood-opacity="0" result="BackgroundImageFix"/>
<feBlend mode="normal" in="SourceGraphic" in2="BackgroundImageFix" result="shape"/>
<feGaussianBlur stdDeviation="161" result="effect1_foregroundBlur_2637_27"/>
</filter>
<clipPath id="clip0_2637_27">
<rect width="900" height="287" fill="white"/>
</clipPath>
<clipPath id="clip1_2637_27">
<rect width="900" height="600" fill="white" transform="translate(0 -459)"/>
</clipPath>
</defs>
</svg>
