<svg id="visual" viewBox="0 0 900 600" width="900" height="600" xmlns="http://www.w3.org/2000/svg" xmlns:xlink="http://www.w3.org/1999/xlink" version="1.1"><path d="M0 61L15 58C30 55 60 49 90 52C120 55 150 67 180 75C210 83 240 87 270 83C300 79 330 67 360 69C390 71 420 87 450 99C480 111 510 119 540 122C570 125 600 123 630 116C660 109 690 97 720 96C750 95 780 105 810 110C840 115 870 115 885 115L900 115L900 0L885 0C870 0 840 0 810 0C780 0 750 0 720 0C690 0 660 0 630 0C600 0 570 0 540 0C510 0 480 0 450 0C420 0 390 0 360 0C330 0 300 0 270 0C240 0 210 0 180 0C150 0 120 0 90 0C60 0 30 0 15 0L0 0Z" fill="#5b7843"></path><path d="M0 181L15 175C30 169 60 157 90 155C120 153 150 161 180 170C210 179 240 189 270 197C300 205 330 211 360 204C390 197 420 177 450 183C480 189 510 221 540 236C570 251 600 249 630 240C660 231 690 215 720 217C750 219 780 239 810 247C840 255 870 251 885 249L900 247L900 113L885 113C870 113 840 113 810 108C780 103 750 93 720 94C690 95 660 107 630 114C600 121 570 123 540 120C510 117 480 109 450 97C420 85 390 69 360 67C330 65 300 77 270 81C240 85 210 81 180 73C150 65 120 53 90 50C60 47 30 53 15 56L0 59Z" fill="#77844c"></path><path d="M0 325L15 316C30 307 60 289 90 286C120 283 150 295 180 314C210 333 240 359 270 381C300 403 330 421 360 424C390 427 420 415 450 403C480 391 510 379 540 376C570 373 600 379 630 377C660 375 690 365 720 373C750 381 780 407 810 415C840 423 870 413 885 408L900 403L900 245L885 247C870 249 840 253 810 245C780 237 750 217 720 215C690 213 660 229 630 238C600 247 570 249 540 234C510 219 480 187 450 181C420 175 390 195 360 202C330 209 300 203 270 195C240 187 210 177 180 168C150 159 120 151 90 153C60 155 30 167 15 173L0 179Z" fill="#928f57"></path><path d="M0 385L15 379C30 373 60 361 90 358C120 355 150 361 180 379C210 397 240 427 270 449C300 471 330 485 360 492C390 499 420 499 450 485C480 471 510 443 540 440C570 437 600 459 630 460C660 461 690 441 720 443C750 445 780 469 810 478C840 487 870 481 885 478L900 475L900 401L885 406C870 411 840 421 810 413C780 405 750 379 720 371C690 363 660 373 630 375C600 377 570 371 540 374C510 377 480 389 450 401C420 413 390 425 360 422C330 419 300 401 270 379C240 357 210 331 180 312C150 293 120 281 90 284C60 287 30 305 15 314L0 323Z" fill="#ac9a65"></path><path d="M0 601L15 601C30 601 60 601 90 601C120 601 150 601 180 601C210 601 240 601 270 601C300 601 330 601 360 601C390 601 420 601 450 601C480 601 510 601 540 601C570 601 600 601 630 601C660 601 690 601 720 601C750 601 780 601 810 601C840 601 870 601 885 601L900 601L900 473L885 476C870 479 840 485 810 476C780 467 750 443 720 441C690 439 660 459 630 458C600 457 570 435 540 438C510 441 480 469 450 483C420 497 390 497 360 490C330 483 300 469 270 447C240 425 210 395 180 377C150 359 120 353 90 356C60 359 30 371 15 377L0 383Z" fill="#c6a676"></path></svg>