<svg width="900" height="600" viewBox="0 0 900 600" fill="none" xmlns="http://www.w3.org/2000/svg">
<g clip-path="url(#clip0_2636_12)">
<path d="M0 61L15 58C30 55 60 49 90 52C120 55 150 67 180 75C210 83 240 87 270 83C300 79 330 67 360 69C390 71 420 87 450 99C480 111 510 119 540 122C570 125 600 123 630 116C660 109 690 97 720 96C750 95 780 105 810 110C840 115 870 115 885 115H900V0H885C870 0 840 0 810 0C780 0 750 0 720 0C690 0 660 0 630 0C600 0 570 0 540 0C510 0 480 0 450 0C420 0 390 0 360 0C330 0 300 0 270 0C240 0 210 0 180 0C150 0 120 0 90 0C60 0 30 0 15 0H0V61Z" fill="#5B7843"/>
<g clip-path="url(#clip1_2636_12)">
<path d="M900 -477H0V123H900V-477Z" fill="#585148"/>
<g filter="url(#filter0_f_2636_12)">
<path d="M394 174C591.166 174 751 14.1656 751 -183C751 -380.166 591.166 -540 394 -540C196.834 -540 37 -380.166 37 -183C37 14.1656 196.834 174 394 174Z" fill="#5B7843"/>
<path d="M63 240C260.166 240 420 80.1656 420 -117C420 -314.166 260.166 -474 63 -474C-134.166 -474 -294 -314.166 -294 -117C-294 80.1656 -134.166 240 63 240Z" fill="#585148"/>
<path d="M776 464C973.166 464 1133 304.166 1133 107C1133 -90.1656 973.166 -250 776 -250C578.834 -250 419 -90.1656 419 107C419 304.166 578.834 464 776 464Z" fill="#5B7843"/>
<path d="M364 366C561.166 366 721 206.166 721 9C721 -188.166 561.166 -348 364 -348C166.834 -348 7 -188.166 7 9C7 206.166 166.834 366 364 366Z" fill="#5B7843"/>
<path d="M270 16C467.166 16 627 -143.834 627 -341C627 -538.166 467.166 -698 270 -698C72.8344 -698 -87 -538.166 -87 -341C-87 -143.834 72.8344 16 270 16Z" fill="#585148"/>
<path d="M673 98C870.166 98 1030 -61.8344 1030 -259C1030 -456.166 870.166 -616 673 -616C475.834 -616 316 -456.166 316 -259C316 -61.8344 475.834 98 673 98Z" fill="#5B7843"/>
</g>
</g>
<path d="M0 181L15 175C30 169 60 157 90 155C120 153 150 161 180 170C210 179 240 189 270 197C300 205 330 211 360 204C390 197 420 177 450 183C480 189 510 221 540 236C570 251 600 249 630 240C660 231 690 215 720 217C750 219 780 239 810 247C840 255 870 251 885 249L900 247V113H885C870 113 840 113 810 108C780 103 750 93.0002 720 94.0002C690 95.0002 660 107 630 114C600 121 570 123 540 120C510 117 480 109 450 97.0002C420 85.0002 390 69.0002 360 67.0002C330 65.0002 300 77.0002 270 81.0002C240 85.0002 210 81.0002 180 73.0002C150 65.0002 120 53.0002 90 50.0002C60 47.0002 30 53.0002 15 56.0002L0 59.0002V181Z" fill="#77844C"/>
<path d="M0 325L15 316C30 307 60 289 90 286C120 283 150 295 180 314C210 333 240 359 270 381C300 403 330 421 360 424C390 427 420 415 450 403C480 391 510 379 540 376C570 373 600 379 630 377C660 375 690 365 720 373C750 381 780 407 810 415C840 423 870 413 885 408L900 403V245L885 247C870 249 840 253 810 245C780 237 750 217 720 215C690 213 660 229 630 238C600 247 570 249 540 234C510 219 480 187 450 181C420 175 390 195 360 202C330 209 300 203 270 195C240 187 210 177 180 168C150 159 120 151 90 153C60 155 30 167 15 173L0 179V325Z" fill="#928F57"/>
<path d="M0 385L15 379C30 373 60 361 90 358C120 355 150 361 180 379C210 397 240 427 270 449C300 471 330 485 360 492C390 499 420 499 450 485C480 471 510 443 540 440C570 437 600 459 630 460C660 461 690 441 720 443C750 445 780 469 810 478C840 487 870 481 885 478L900 475V401L885 406C870 411 840 421 810 413C780 405 750 379 720 371C690 363 660 373 630 375C600 377 570 371 540 374C510 377 480 389 450 401C420 413 390 425 360 422C330 419 300 401 270 379C240 357 210 331 180 312C150 293 120 281 90 284C60 287 30 305 15 314L0 323V385Z" fill="#AC9A65"/>
<path d="M0 601H15C30 601 60 601 90 601C120 601 150 601 180 601C210 601 240 601 270 601C300 601 330 601 360 601C390 601 420 601 450 601C480 601 510 601 540 601C570 601 600 601 630 601C660 601 690 601 720 601C750 601 780 601 810 601C840 601 870 601 885 601H900V473L885 476C870 479 840 485 810 476C780 467 750 443 720 441C690 439 660 459 630 458C600 457 570 435 540 438C510 441 480 469 450 483C420 497 390 497 360 490C330 483 300 469 270 447C240 425 210 395 180 377C150 359 120 353 90 356C60 359 30 371 15 377L0 383V601Z" fill="#C6A676"/>
</g>
<defs>
<filter id="filter0_f_2636_12" x="-616" y="-1020" width="2071" height="1806" filterUnits="userSpaceOnUse" color-interpolation-filters="sRGB">
<feFlood flood-opacity="0" result="BackgroundImageFix"/>
<feBlend mode="normal" in="SourceGraphic" in2="BackgroundImageFix" result="shape"/>
<feGaussianBlur stdDeviation="161" result="effect1_foregroundBlur_2636_12"/>
</filter>
<clipPath id="clip0_2636_12">
<rect width="900" height="600" fill="white"/>
</clipPath>
<clipPath id="clip1_2636_12">
<rect width="900" height="600" fill="white" transform="translate(0 -477)"/>
</clipPath>
</defs>
</svg>
