<svg id="visual" viewBox="0 0 900 600" width="900" height="600" xmlns="http://www.w3.org/2000/svg" xmlns:xlink="http://www.w3.org/1999/xlink" version="1.1"><path d="M773 600L749 590.8C725 581.7 677 563.3 674 545.2C671 527 713 509 711.5 490.8C710 472.7 665 454.3 648.5 436.2C632 418 644 400 665 381.8C686 363.7 716 345.3 738.5 327.2C761 309 776 291 773 272.8C770 254.7 749 236.3 731 218.2C713 200 698 182 711.5 163.8C725 145.7 767 127.3 768.5 109.2C770 91 731 73 699.5 54.8C668 36.7 644 18.3 632 9.2L620 0L900 0L900 9.2C900 18.3 900 36.7 900 54.8C900 73 900 91 900 109.2C900 127.3 900 145.7 900 163.8C900 182 900 200 900 218.2C900 236.3 900 254.7 900 272.8C900 291 900 309 900 327.2C900 345.3 900 363.7 900 381.8C900 400 900 418 900 436.2C900 454.3 900 472.7 900 490.8C900 509 900 527 900 545.2C900 563.3 900 581.7 900 590.8L900 600Z" fill="#798d68"></path><path d="M692 600L663.5 590.8C635 581.7 578 563.3 554 545.2C530 527 539 509 542 490.8C545 472.7 542 454.3 530 436.2C518 418 497 400 519.5 381.8C542 363.7 608 345.3 645.5 327.2C683 309 692 291 674 272.8C656 254.7 611 236.3 584 218.2C557 200 548 182 564.5 163.8C581 145.7 623 127.3 627.5 109.2C632 91 599 73 570.5 54.8C542 36.7 518 18.3 506 9.2L494 0L621 0L633 9.2C645 18.3 669 36.7 700.5 54.8C732 73 771 91 769.5 109.2C768 127.3 726 145.7 712.5 163.8C699 182 714 200 732 218.2C750 236.3 771 254.7 774 272.8C777 291 762 309 739.5 327.2C717 345.3 687 363.7 666 381.8C645 400 633 418 649.5 436.2C666 454.3 711 472.7 712.5 490.8C714 509 672 527 675 545.2C678 563.3 726 581.7 750 590.8L774 600Z" fill="#60764e"></path><path d="M512 600L477.5 590.8C443 581.7 374 563.3 348.5 545.2C323 527 341 509 345.5 490.8C350 472.7 341 454.3 336.5 436.2C332 418 332 400 315.5 381.8C299 363.7 266 345.3 267.5 327.2C269 309 305 291 300.5 272.8C296 254.7 251 236.3 260 218.2C269 200 332 182 348.5 163.8C365 145.7 335 127.3 336.5 109.2C338 91 371 73 362 54.8C353 36.7 302 18.3 276.5 9.2L251 0L495 0L507 9.2C519 18.3 543 36.7 571.5 54.8C600 73 633 91 628.5 109.2C624 127.3 582 145.7 565.5 163.8C549 182 558 200 585 218.2C612 236.3 657 254.7 675 272.8C693 291 684 309 646.5 327.2C609 345.3 543 363.7 520.5 381.8C498 400 519 418 531 436.2C543 454.3 546 472.7 543 490.8C540 509 531 527 555 545.2C579 563.3 636 581.7 664.5 590.8L693 600Z" fill="#4c623b"></path><path d="M0 600L0 590.8C0 581.7 0 563.3 0 545.2C0 527 0 509 0 490.8C0 472.7 0 454.3 0 436.2C0 418 0 400 0 381.8C0 363.7 0 345.3 0 327.2C0 309 0 291 0 272.8C0 254.7 0 236.3 0 218.2C0 200 0 182 0 163.8C0 145.7 0 127.3 0 109.2C0 91 0 73 0 54.8C0 36.7 0 18.3 0 9.2L0 0L252 0L277.5 9.2C303 18.3 354 36.7 363 54.8C372 73 339 91 337.5 109.2C336 127.3 366 145.7 349.5 163.8C333 182 270 200 261 218.2C252 236.3 297 254.7 301.5 272.8C306 291 270 309 268.5 327.2C267 345.3 300 363.7 316.5 381.8C333 400 333 418 337.5 436.2C342 454.3 351 472.7 346.5 490.8C342 509 324 527 349.5 545.2C375 563.3 444 581.7 478.5 590.8L513 600Z" fill="#3d4f30"></path></svg>