<svg id="visual" viewBox="0 0 900 600" width="900" height="600" xmlns="http://www.w3.org/2000/svg" xmlns:xlink="http://www.w3.org/1999/xlink" version="1.1"><path d="M0 115L18.8 113C37.7 111 75.3 107 112.8 97C150.3 87 187.7 71 225.2 62C262.7 53 300.3 51 337.8 48C375.3 45 412.7 41 450.2 43C487.7 45 525.3 53 562.8 52C600.3 51 637.7 41 675.2 46C712.7 51 750.3 71 787.8 80C825.3 89 862.7 87 881.3 86L900 85L900 0L881.3 0C862.7 0 825.3 0 787.8 0C750.3 0 712.7 0 675.2 0C637.7 0 600.3 0 562.8 0C525.3 0 487.7 0 450.2 0C412.7 0 375.3 0 337.8 0C300.3 0 262.7 0 225.2 0C187.7 0 150.3 0 112.8 0C75.3 0 37.7 0 18.8 0L0 0Z" fill="#6c665f"></path><path d="M0 187L18.8 179C37.7 171 75.3 155 112.8 148C150.3 141 187.7 143 225.2 136C262.7 129 300.3 113 337.8 117C375.3 121 412.7 145 450.2 159C487.7 173 525.3 177 562.8 185C600.3 193 637.7 205 675.2 214C712.7 223 750.3 229 787.8 214C825.3 199 862.7 163 881.3 145L900 127L900 83L881.3 84C862.7 85 825.3 87 787.8 78C750.3 69 712.7 49 675.2 44C637.7 39 600.3 49 562.8 50C525.3 51 487.7 43 450.2 41C412.7 39 375.3 43 337.8 46C300.3 49 262.7 51 225.2 60C187.7 69 150.3 85 112.8 95C75.3 105 37.7 109 18.8 111L0 113Z" fill="#5a544d"></path><path d="M0 271L18.8 280C37.7 289 75.3 307 112.8 304C150.3 301 187.7 277 225.2 264C262.7 251 300.3 249 337.8 265C375.3 281 412.7 315 450.2 347C487.7 379 525.3 409 562.8 413C600.3 417 637.7 395 675.2 389C712.7 383 750.3 393 787.8 381C825.3 369 862.7 335 881.3 318L900 301L900 125L881.3 143C862.7 161 825.3 197 787.8 212C750.3 227 712.7 221 675.2 212C637.7 203 600.3 191 562.8 183C525.3 175 487.7 171 450.2 157C412.7 143 375.3 119 337.8 115C300.3 111 262.7 127 225.2 134C187.7 141 150.3 139 112.8 146C75.3 153 37.7 169 18.8 177L0 185Z" fill="#48423b"></path><path d="M0 355L18.8 367C37.7 379 75.3 403 112.8 405C150.3 407 187.7 387 225.2 373C262.7 359 300.3 351 337.8 359C375.3 367 412.7 391 450.2 422C487.7 453 525.3 491 562.8 496C600.3 501 637.7 473 675.2 461C712.7 449 750.3 453 787.8 443C825.3 433 862.7 409 881.3 397L900 385L900 299L881.3 316C862.7 333 825.3 367 787.8 379C750.3 391 712.7 381 675.2 387C637.7 393 600.3 415 562.8 411C525.3 407 487.7 377 450.2 345C412.7 313 375.3 279 337.8 263C300.3 247 262.7 249 225.2 262C187.7 275 150.3 299 112.8 302C75.3 305 37.7 287 18.8 278L0 269Z" fill="#3e3933"></path><path d="M0 601L18.8 601C37.7 601 75.3 601 112.8 601C150.3 601 187.7 601 225.2 601C262.7 601 300.3 601 337.8 601C375.3 601 412.7 601 450.2 601C487.7 601 525.3 601 562.8 601C600.3 601 637.7 601 675.2 601C712.7 601 750.3 601 787.8 601C825.3 601 862.7 601 881.3 601L900 601L900 383L881.3 395C862.7 407 825.3 431 787.8 441C750.3 451 712.7 447 675.2 459C637.7 471 600.3 499 562.8 494C525.3 489 487.7 451 450.2 420C412.7 389 375.3 365 337.8 357C300.3 349 262.7 357 225.2 371C187.7 385 150.3 405 112.8 403C75.3 401 37.7 377 18.8 365L0 353Z" fill="#35312c"></path></svg>