<svg id="visual" viewBox="0 0 900 600" width="900" height="600" xmlns="http://www.w3.org/2000/svg" xmlns:xlink="http://www.w3.org/1999/xlink" version="1.1"><path d="M0 85L13.7 101C27.3 117 54.7 149 82 151C109.3 153 136.7 125 163.8 126C191 127 218 157 245.2 168C272.3 179 299.7 171 327 157C354.3 143 381.7 123 409 108C436.3 93 463.7 83 491 85C518.3 87 545.7 101 573 113C600.3 125 627.7 135 654.8 126C682 117 709 89 736.2 88C763.3 87 790.7 113 818 134C845.3 155 872.7 171 886.3 179L900 187L900 0L886.3 0C872.7 0 845.3 0 818 0C790.7 0 763.3 0 736.2 0C709 0 682 0 654.8 0C627.7 0 600.3 0 573 0C545.7 0 518.3 0 491 0C463.7 0 436.3 0 409 0C381.7 0 354.3 0 327 0C299.7 0 272.3 0 245.2 0C218 0 191 0 163.8 0C136.7 0 109.3 0 82 0C54.7 0 27.3 0 13.7 0L0 0Z" fill="#798d68"></path><path d="M0 139L13.7 158C27.3 177 54.7 215 82 231C109.3 247 136.7 241 163.8 239C191 237 218 239 245.2 247C272.3 255 299.7 269 327 254C354.3 239 381.7 195 409 170C436.3 145 463.7 139 491 151C518.3 163 545.7 193 573 211C600.3 229 627.7 235 654.8 224C682 213 709 185 736.2 182C763.3 179 790.7 201 818 220C845.3 239 872.7 255 886.3 263L900 271L900 185L886.3 177C872.7 169 845.3 153 818 132C790.7 111 763.3 85 736.2 86C709 87 682 115 654.8 124C627.7 133 600.3 123 573 111C545.7 99 518.3 85 491 83C463.7 81 436.3 91 409 106C381.7 121 354.3 141 327 155C299.7 169 272.3 177 245.2 166C218 155 191 125 163.8 124C136.7 123 109.3 151 82 149C54.7 147 27.3 115 13.7 99L0 83Z" fill="#60764e"></path><path d="M0 259L13.7 282C27.3 305 54.7 351 82 368C109.3 385 136.7 373 163.8 370C191 367 218 373 245.2 376C272.3 379 299.7 379 327 390C354.3 401 381.7 423 409 422C436.3 421 463.7 397 491 400C518.3 403 545.7 433 573 427C600.3 421 627.7 379 654.8 368C682 357 709 377 736.2 376C763.3 375 790.7 353 818 359C845.3 365 872.7 399 886.3 416L900 433L900 269L886.3 261C872.7 253 845.3 237 818 218C790.7 199 763.3 177 736.2 180C709 183 682 211 654.8 222C627.7 233 600.3 227 573 209C545.7 191 518.3 161 491 149C463.7 137 436.3 143 409 168C381.7 193 354.3 237 327 252C299.7 267 272.3 253 245.2 245C218 237 191 235 163.8 237C136.7 239 109.3 245 82 229C54.7 213 27.3 175 13.7 156L0 137Z" fill="#4c623b"></path><path d="M0 601L13.7 601C27.3 601 54.7 601 82 601C109.3 601 136.7 601 163.8 601C191 601 218 601 245.2 601C272.3 601 299.7 601 327 601C354.3 601 381.7 601 409 601C436.3 601 463.7 601 491 601C518.3 601 545.7 601 573 601C600.3 601 627.7 601 654.8 601C682 601 709 601 736.2 601C763.3 601 790.7 601 818 601C845.3 601 872.7 601 886.3 601L900 601L900 431L886.3 414C872.7 397 845.3 363 818 357C790.7 351 763.3 373 736.2 374C709 375 682 355 654.8 366C627.7 377 600.3 419 573 425C545.7 431 518.3 401 491 398C463.7 395 436.3 419 409 420C381.7 421 354.3 399 327 388C299.7 377 272.3 377 245.2 374C218 371 191 365 163.8 368C136.7 371 109.3 383 82 366C54.7 349 27.3 303 13.7 280L0 257Z" fill="#3d4f30"></path></svg>