<svg id="visual" viewBox="0 0 900 600" width="900" height="600" xmlns="http://www.w3.org/2000/svg" xmlns:xlink="http://www.w3.org/1999/xlink" version="1.1"><path d="M0 521L21.5 517C43 513 86 505 128.8 483.3C171.7 461.7 214.3 426.3 257.2 420.5C300 414.7 343 438.3 385.8 441.7C428.7 445 471.3 428 514.2 437.8C557 447.7 600 484.3 642.8 488C685.7 491.7 728.3 462.3 771.2 452.3C814 442.3 857 451.7 878.5 456.3L900 461L900 601L878.5 601C857 601 814 601 771.2 601C728.3 601 685.7 601 642.8 601C600 601 557 601 514.2 601C471.3 601 428.7 601 385.8 601C343 601 300 601 257.2 601C214.3 601 171.7 601 128.8 601C86 601 43 601 21.5 601L0 601Z" fill="#C6A676" stroke-linecap="round" stroke-linejoin="miter"></path></svg>